# This file uses centimeters as units for non-parametric coordinates.

mtllib BarkMapped.mtl
g default
v 7.855637 -5.650696 7.677795
v 6.476868 -7.562347 8.745605
v 8.407852 -40.379303 -0.052307
v 8.308792 -39.251709 2.331970
v 8.836182 42.064636 -6.184143
v 9.916901 39.688629 -4.800110
v 7.178787 42.766144 -6.266296
v 6.594650 41.633270 -4.926941
v 9.016403 26.039734 -5.392517
v 8.346451 29.787476 -4.177063
v 9.045624 -39.533783 -4.588928
v 6.959045 -35.675690 6.033020
v 8.321091 -35.286011 3.122437
v 4.817093 -36.472107 7.094299
v 7.024689 -41.717407 2.015686
v 9.777527 30.587067 0.094788
v 9.391602 24.938171 0.668396
v 9.725006 33.868347 -4.766418
v 10.048172 35.446808 -0.912781
v 10.038818 40.665802 -2.850891
v 9.952026 40.049377 -0.861267
v 9.568665 37.153473 1.730530
v 5.785812 38.828369 -1.129578
v 5.041336 36.356476 -0.157898
v 5.130875 38.074921 3.968567
v 6.561752 42.585938 1.191650
v 5.852158 38.906738 -2.927368
v 4.966583 35.845856 -2.539124
v 7.012466 42.796326 -3.022156
v 2.245758 -31.207245 1.840210
v 2.386932 -33.211792 3.323059
v 2.795456 -33.154510 -1.440247
v 3.807755 -39.173584 -0.387024
v 1.809631 -27.036987 1.912537
v 1.613419 -25.733521 -1.261536
v 2.886963 -27.176331 -6.219971
v 3.869873 -34.785645 -5.309265
v 4.819672 -40.612061 -3.860535
v 6.369431 -37.722839 -7.748962
v 6.930756 -43.828033 -6.550476
v 7.716141 -36.326691 -6.780640
v 8.041763 -42.831940 -5.500916
v 8.897186 -34.643890 -4.988831
v 8.739349 -34.638000 0.284973
v 7.935776 -27.693512 3.721680
v 6.794327 -28.339111 6.077332
v 4.838745 -30.356079 7.806213
v 3.390793 -30.714600 7.784546
v 3.510147 -36.886871 6.475403
v 5.150253 -42.993011 2.477112
v 5.569382 -44.341736 -0.918213
v 6.696793 -43.677917 -0.273376
v 1.856125 -27.210083 4.377014
v 1.297623 -20.098572 4.292664
v 1.288330 -22.048950 1.570496
v 1.245544 -17.884430 -1.752502
v 2.067093 -19.146240 -6.403381
v 5.348648 -28.736298 -8.063782
v 7.181244 -27.796417 -7.758850
v 8.546936 -27.543335 -5.637512
v 8.525757 -27.634064 0.651184
v 8.108063 -20.274445 1.089722
v 7.579025 -19.705505 4.549744
v 7.340240 -14.098450 5.326355
v 5.943649 -14.225067 6.529114
v 6.636017 -19.005981 5.978821
v 4.493362 -14.062897 6.981567
v 4.625717 -20.369415 7.599976
v 1.979080 -20.527649 7.147156
v 2.261200 -14.630768 6.951721
v 1.305054 -14.555481 3.745911
v 0.703125 -9.789459 3.936340
v 0.433609 -10.676514 1.209290
v 1.541656 -15.914673 1.224243
v 0.304108 -5.636017 -1.862915
v 0.880814 -11.802734 -1.777588
v 1.879364 -12.981476 -5.697083
v 2.449448 -7.178101 -6.895081
v 3.627686 -13.817810 -8.064636
v 3.845581 -18.625000 -8.623108
v 5.571945 -13.695709 -7.394470
v 5.868362 -18.401123 -8.052795
v 7.287735 -13.607361 -5.779785
v 7.600525 -18.408386 -6.196594
v 7.935165 -13.964600 1.656921
v 8.525543 -7.070496 2.292297
v 8.379303 0.099579 2.195313
v 6.899017 -0.106201 6.006165
v 4.183258 -0.078918 7.457886
v 4.993637 -4.572021 7.899780
v 4.149185 -7.995300 7.904236
v 1.062622 0.210571 7.657532
v 1.316269 -5.475739 7.100647
v 1.609177 -9.094940 7.009705
v 0.065369 1.059418 4.478210
v 0.372055 -4.918121 4.186951
v -0.040375 1.693909 1.309814
v 0.026077 -4.909119 1.202820
v 0.251709 1.246094 -1.820251
v 0.863708 -0.090179 -4.574402
v 1.951187 -0.651550 -7.247498
v 6.679459 -0.804932 -5.684814
v 5.454559 -7.439941 -6.680176
v 7.114960 -6.961090 -4.947632
v 7.565674 -0.208130 -3.813232
v 8.138550 9.515442 1.316406
v 7.436935 9.545776 6.081116
v 5.498062 11.089020 8.693176
v 2.331802 9.304993 8.499817
v 0.876404 10.179779 4.790100
v 0.491531 9.929230 1.309753
v 0.921677 9.563995 -2.051086
v 1.427155 9.364746 -5.167297
v 2.688965 9.081573 -7.339172
v 6.743790 8.923157 -6.716858
v 7.921600 9.181885 -4.655457
v 8.764801 18.656555 -6.753113
v 8.638199 18.021149 1.068420
v 7.790207 19.570526 7.057190
v 6.116547 19.101044 8.849915
v 3.839432 19.349792 7.834656
v 2.207947 19.481293 4.122742
v 1.786957 18.476654 0.882629
v 2.029968 18.193573 -2.499695
v 3.059067 20.118744 -7.420593
v 4.151962 19.337097 -9.797058
v 7.923111 19.378265 -8.933533
v 8.243210 27.254517 -7.524597
v 4.507111 28.376495 -7.482056
v 5.095413 33.039734 -7.393799
v 6.899078 31.450806 -6.151550
v 5.587875 36.071075 -7.410950
v 8.901810 35.035553 -6.575012
v 6.736847 39.169952 -7.030823
v 9.251663 38.405518 -6.627808
v 9.872208 37.234375 -5.534790
v 4.977692 36.229736 -5.536194
v 5.891678 39.196625 -5.510925
v 4.389282 31.988831 -5.221252
v 4.263290 31.680206 -2.213928
v 3.560928 27.361206 -6.185364
v 3.070923 25.672424 -2.388977
v 2.968781 26.064026 0.677795
v 4.202103 32.134338 0.815735
v 3.000839 27.103455 3.582397
v 3.847595 33.335602 5.221252
v 5.531006 32.085144 7.537292
v 6.192734 38.265320 5.138489
v 7.351242 43.143646 0.856140
v 7.740891 43.775146 -2.760315
v 9.434280 41.553589 0.313293
v 9.902710 42.016602 -3.052795
v 8.697159 37.926636 3.725647
v 7.852737 31.995697 6.740417
v 8.649353 26.995667 5.721924
v 9.175034 32.162170 3.435364
v 7.315109 27.327850 7.834167
v 4.322845 26.965363 7.431702
v 1.089142 -6.744904 -4.985291
v 7.215469 -43.348633 -2.504456
v 8.991196 -40.011749 -2.314880
v 9.086655 -34.708038 -2.487488
v 8.705673 -27.791595 -2.554749
v 8.081558 -20.113861 -2.401672
v 7.772873 -13.880188 -1.877258
v 7.894241 -7.021423 -1.147888
v 8.136276 -0.104889 -1.196716
v 8.525803 9.255005 -2.027039
v 8.947601 17.705353 -2.596741
v 8.846664 24.735138 -2.550720
v 9.263794 29.862549 -2.547974
v 9.988373 34.409454 -3.164001
v 5.743118 -44.680481 -2.587646
v 7.522446 -38.698669 4.765930
v 5.976807 -40.153778 4.940857
v 4.485703 -40.577789 4.868896
v 3.238235 -37.243103 1.328552
v 1.940323 -28.285706 0.211121
v 2.610367 -32.918915 0.336365
vt 0.367325 0.153882
vt 0.369742 0.156876
vt 0.365312 0.158926
vt 0.363668 0.152782
vt 0.380531 0.095409
vt 0.380827 0.090321
vt 0.385130 0.086684
vt 0.384967 0.093565
vt 0.390472 0.210474
vt 0.392401 0.219701
vt 0.387595 0.221880
vt 0.384863 0.211846
vt 0.388777 0.198457
vt 0.382489 0.199692
vt 0.389398 0.087411
vt 0.389218 0.094558
vt 0.371417 0.115142
vt 0.372396 0.101123
vt 0.378440 0.102473
vt 0.376233 0.116591
vt 0.375966 0.096009
vt 0.374697 0.092407
vt 0.395927 0.218914
vt 0.395689 0.211743
vt 0.399743 0.212790
vt 0.401444 0.220690
vt 0.394383 0.228117
vt 0.390610 0.230504
vt 0.397156 0.226801
vt 0.400867 0.228328
vt 0.395364 0.239449
vt 0.391652 0.238765
vt 0.386212 0.234241
vt 0.299088 0.242160
vt 0.302222 0.236447
vt 0.311904 0.241199
vt 0.304037 0.251647
vt 0.294563 0.241965
vt 0.296596 0.234648
vt 0.293351 0.251915
vt 0.316724 0.114369
vt 0.319859 0.109980
vt 0.322302 0.122802
vt 0.317109 0.123190
vt 0.309383 0.110292
vt 0.310516 0.125922
vt 0.299809 0.123077
vt 0.300549 0.106874
vt 0.302576 0.093571
vt 0.310826 0.096602
vt 0.293572 0.119643
vt 0.293224 0.100022
vt 0.295087 0.086077
vt 0.397671 0.102184
vt 0.396633 0.089690
vt 0.393470 0.095649
vt 0.393401 0.104869
vt 0.397947 0.117936
vt 0.393408 0.117920
vt 0.383648 0.104095
vt 0.388795 0.104354
vt 0.387887 0.117064
vt 0.382011 0.117012
vt 0.373987 0.131519
vt 0.370729 0.132753
vt 0.366624 0.111101
vt 0.365988 0.129956
vt 0.367818 0.099347
vt 0.363950 0.110310
vt 0.326862 0.101175
vt 0.316610 0.086736
vt 0.322709 0.092263
vt 0.315007 0.100900
vt 0.308339 0.084219
vt 0.327785 0.136585
vt 0.321841 0.137054
vt 0.316404 0.133107
vt 0.309689 0.140778
vt 0.300432 0.138674
vt 0.294950 0.139873
vt 0.398109 0.134827
vt 0.393638 0.134391
vt 0.386908 0.131071
vt 0.380538 0.130600
vt 0.372323 0.142227
vt 0.379299 0.142264
vt 0.368735 0.141955
vt 0.365762 0.141991
vt 0.361634 0.140674
vt 0.320031 0.146988
vt 0.319243 0.154836
vt 0.324467 0.156562
vt 0.314624 0.153108
vt 0.315411 0.144328
vt 0.309384 0.151055
vt 0.302139 0.149186
vt 0.297013 0.148153
vt 0.396888 0.142973
vt 0.392787 0.142859
vt 0.385749 0.142358
vt 0.378640 0.154479
vt 0.378414 0.167265
vt 0.370728 0.166973
vt 0.380758 0.184533
vt 0.371941 0.185185
vt 0.364665 0.167294
vt 0.366140 0.188442
vt 0.358777 0.167884
vt 0.323377 0.161948
vt 0.318460 0.162240
vt 0.317763 0.171040
vt 0.312681 0.171733
vt 0.313571 0.161899
vt 0.307643 0.170823
vt 0.308606 0.160530
vt 0.299927 0.157885
vt 0.298887 0.167382
vt 0.393186 0.165384
vt 0.395742 0.153743
vt 0.391530 0.154533
vt 0.384725 0.154519
vt 0.384668 0.166845
vt 0.386816 0.183749
vt 0.372013 0.203580
vt 0.367506 0.203031
vt 0.360360 0.184931
vt 0.362941 0.203921
vt 0.317690 0.185288
vt 0.311822 0.184620
vt 0.306291 0.183678
vt 0.301117 0.182973
vt 0.303347 0.168520
vt 0.297190 0.182062
vt 0.395824 0.182553
vt 0.391647 0.183347
vt 0.389516 0.166558
vt 0.395748 0.199369
vt 0.399582 0.200120
vt 0.376183 0.216771
vt 0.371681 0.217933
vt 0.321979 0.217042
vt 0.315641 0.201639
vt 0.313308 0.216591
vt 0.309713 0.199301
vt 0.303474 0.198213
vt 0.293868 0.200199
vt 0.289520 0.197954
vt 0.405940 0.214501
vt 0.285960 0.226359
vt 0.284387 0.233702
vt 0.283627 0.241834
vt 0.401842 0.234136
vt 0.399329 0.232601
vt 0.401917 0.242561
vt 0.398893 0.237367
vt 0.284861 0.251153
vt 0.289152 0.234533
vt 0.287973 0.241888
vt 0.288656 0.248341
vt 0.291841 0.224810
vt 0.298923 0.225248
vt 0.292431 0.214318
vt 0.301106 0.212376
vt 0.307380 0.213948
vt 0.305732 0.227029
vt 0.315627 0.230299
vt 0.322612 0.228762
vt 0.377666 0.238766
vt 0.387991 0.246349
vt 0.395390 0.247054
vt 0.389824 0.241725
vt 0.395809 0.241846
vt 0.382520 0.236268
vt 0.375137 0.226243
vt 0.381739 0.225614
vt 0.303516 0.158667
vt 0.304401 0.083806
vt 0.313422 0.120600
vt 0.313291 0.110721
vt 0.373009 0.090002
vt 0.365191 0.098082
vt 0.366973 0.095472
vt 0.389255 0.083546
vt 0.397156 0.085897
vt 0.399682 0.088072
vt 0.385845 0.084008
vt 0.365913 0.218326
vt 0.323310 0.201995
vt 0.370668 0.227728
vt 0.293745 0.255081
vt 0.406906 0.241506
vt 0.402674 0.246054
vt 0.303500 0.253894
vt 0.315372 0.242927
vt 0.288754 0.215711
vt 0.405691 0.198888
vt 0.403555 0.240737
vt 0.406667 0.234447
vt 0.407196 0.228259
vt 0.406104 0.222759
vt 0.402767 0.181397
vt 0.324449 0.184213
vt 0.401745 0.165041
vt 0.323003 0.170024
vt 0.400731 0.154413
vt 0.359133 0.150412
vt 0.326197 0.147507
vt 0.358442 0.157451
vt 0.401833 0.134989
vt 0.401454 0.116595
vt 0.400394 0.143215
vt 0.360947 0.129648
vt 0.330121 0.115209
vt 0.400978 0.099829
vt 0.378892 0.086327
vt 0.368431 0.098031
vt 0.395297 0.088934
vn 0.380567 -0.147397 0.912931
vn 0.891256 0.043792 0.451381
vn 0.043087 0.123193 0.991447
vn -0.164813 -0.064168 0.984235
vn 0.941886 -0.211058 0.261351
vn 0.684323 -0.590707 0.427513
vn 0.711228 -0.643305 0.283398
vn 0.952156 -0.247793 0.178882
vn 0.997921 -0.029866 -0.057119
vn 0.982408 -0.093446 -0.161689
vn 0.996189 -0.056289 0.066632
vn 0.994259 -0.070094 0.080844
vn 0.998356 -0.053768 -0.019871
vn 0.991395 -0.060066 0.116311
vn 0.816261 -0.569908 0.094460
vn 0.975690 -0.193391 0.103098
vn 0.767270 0.010925 0.641231
vn 0.759567 -0.062732 0.647396
vn 0.959553 -0.001151 0.281526
vn 0.952464 0.022812 0.303795
vn 0.767745 -0.262274 0.584620
vn 0.418544 -0.530123 0.737421
vn 0.945225 0.011799 -0.326205
vn 0.980299 0.060873 -0.187905
vn 0.521399 0.215876 -0.825555
vn 0.540667 -0.012531 -0.841143
vn 0.990087 -0.095590 -0.102914
vn 0.997292 -0.027034 0.068389
vn 0.853794 -0.262985 -0.449305
vn 0.496679 -0.173467 -0.850423
vn 0.996748 0.077216 -0.023061
vn 0.980143 0.078491 0.182096
vn 0.963432 0.046311 0.263921
vn -0.962725 0.260944 -0.071198
vn -0.972501 0.220620 -0.074622
vn -0.926053 0.328117 0.186455
vn -0.883797 0.442632 0.151593
vn -0.960968 0.276122 -0.017240
vn -0.979197 0.202659 -0.010177
vn -0.917118 0.396817 -0.037833
vn -0.992570 -0.116974 -0.033490
vn -0.978304 -0.147046 0.145940
vn -0.975002 -0.097058 0.199877
vn -0.994986 -0.098693 0.016183
vn -0.970694 -0.165128 -0.174603
vn -0.984660 -0.099364 -0.143429
vn -0.894091 -0.126268 -0.429717
vn -0.889198 -0.172056 -0.423938
vn -0.920938 -0.244370 -0.303572
vn -0.961705 -0.257489 -0.093933
vn -0.349039 -0.102723 -0.931461
vn -0.433594 -0.203704 -0.877782
vn -0.447717 -0.509743 -0.734650
vn 0.666898 -0.041702 -0.743981
vn 0.859299 -0.356922 -0.366350
vn 0.956674 -0.118750 -0.265846
vn 0.949272 0.007331 -0.314372
vn 0.598440 0.010355 -0.801101
vn 0.946328 0.058451 -0.317879
vn 0.990682 0.007393 0.135992
vn 0.998910 0.018877 0.042687
vn 0.997885 0.064600 -0.007199
vn 0.992968 0.044700 0.109623
vn 0.951218 0.016048 0.308103
vn 0.699172 0.015415 0.714787
vn 0.291413 -0.015425 0.956473
vn 0.290854 0.039759 0.955941
vn 0.269136 -0.205616 0.940898
vn -0.755915 -0.089186 0.648566
vn -0.875440 -0.272095 0.399462
vn -0.776788 -0.597200 0.199882
vn -0.807561 -0.481285 0.340897
vn -0.969711 -0.244157 0.006971
vn -0.835773 -0.546667 -0.051364
vn -0.728768 -0.012398 0.684649
vn -0.988003 -0.026502 0.152145
vn -0.999335 -0.035767 0.007040
vn -0.991798 -0.052305 -0.116623
vn -0.914495 -0.068050 -0.398834
vn -0.385871 -0.018864 -0.922360
vn 0.534981 0.067178 -0.842189
vn 0.932228 0.084280 -0.351921
vn 0.996627 0.070159 -0.042560
vn 0.995881 0.042120 0.080295
vn 0.946360 -0.092498 0.309593
vn 0.998259 -0.031043 0.050152
vn 0.513670 -0.137235 0.846941
vn 0.005387 -0.069274 0.997583
vn -0.678623 -0.024395 0.734082
vn -0.984514 -0.067230 0.161902
vn -0.973372 -0.107554 0.202433
vn -0.698174 -0.096410 0.709407
vn -0.993579 -0.111749 0.017698
vn -0.997930 -0.063694 0.008882
vn -0.988307 -0.086354 -0.125668
vn -0.929664 -0.037298 -0.366516
vn -0.381723 0.092768 -0.919609
vn 0.473860 0.137075 -0.869866
vn 0.928254 0.070854 -0.365137
vn 0.994268 0.021511 -0.104734
vn 0.998264 -0.020847 0.055078
vn 0.992728 0.021619 0.118427
vn 0.868784 0.035758 0.493899
vn 0.989813 -0.029424 0.139297
vn 0.906563 -0.059212 0.417897
vn 0.257387 -0.039646 0.965495
vn 0.335771 -0.054266 0.940379
vn -0.620662 -0.027953 0.783580
vn -0.698433 -0.050981 0.713857
vn -0.980136 -0.060539 0.188863
vn -0.975916 0.033939 0.215491
vn -0.999112 0.039368 -0.015016
vn -0.999059 -0.042849 -0.006785
vn -0.986903 0.035360 -0.157390
vn -0.985981 -0.047781 -0.159870
vn -0.328452 0.026649 -0.944145
vn -0.252563 -0.020681 -0.967359
vn 0.495593 -0.035656 -0.867822
vn 0.431433 0.078157 -0.898753
vn 0.930589 0.013969 -0.365798
vn 0.988547 -0.014458 -0.150219
vn 0.992587 -0.024683 -0.119000
vn 0.997586 -0.049836 -0.048352
vn 0.937835 -0.064410 0.341053
vn 0.297714 0.015960 0.954522
vn -0.619781 0.042900 0.783602
vn -0.716070 0.126294 0.686508
vn -0.958937 0.124828 0.254672
vn -0.993968 0.109082 -0.011370
vn -0.984123 0.096740 -0.148807
vn -0.951932 0.069719 -0.298271
vn -0.944412 0.016627 -0.328344
vn -0.296189 -0.092595 -0.950631
vn 0.479843 -0.155913 -0.863390
vn 0.952148 -0.098942 -0.289181
vn 0.944184 -0.047483 -0.325979
vn 0.968860 -0.077714 -0.235097
vn 0.466539 -0.050680 -0.883047
vn 0.950768 -0.036757 0.307716
vn 0.434852 0.069023 0.897853
vn -0.700949 0.113462 0.704129
vn -0.959346 0.137800 0.246305
vn -0.976008 0.133205 0.172238
vn -0.989915 0.141283 -0.010346
vn -0.984187 0.124854 -0.125649
vn -0.951795 0.101438 -0.289476
vn -0.249128 -0.018929 -0.968286
vn -0.288980 0.230920 -0.929067
vn -0.325936 0.055523 -0.943760
vn -0.302294 0.046081 -0.952100
vn -0.232619 0.184820 -0.954846
vn 0.504238 0.065374 -0.861086
vn 0.952570 -0.040065 -0.301670
vn 0.558826 0.493331 -0.666587
vn 0.980157 0.067674 -0.186313
vn -0.045346 0.703281 -0.709464
vn -0.967760 0.216656 -0.128454
vn -0.944023 0.291948 -0.153581
vn -0.939725 0.324453 -0.107921
vn -0.978071 0.172388 -0.116874
vn -0.982439 0.183428 -0.034178
vn -0.963485 0.153146 -0.219641
vn -0.985416 0.147615 -0.084649
vn -0.986475 0.159203 -0.039015
vn -0.978511 0.190666 -0.078498
vn -0.949704 0.213418 0.229161
vn -0.388856 0.228583 0.892491
vn 0.052560 0.481872 0.874664
vn 0.286518 0.793527 0.536863
vn 0.256926 0.966414 0.005828
vn 0.721537 0.510466 0.467770
vn 0.788465 0.613348 -0.046118
vn 0.710248 0.303433 0.635198
vn 0.646469 0.168115 0.744188
vn 0.962510 0.007002 0.271156
vn -0.936187 -0.058217 -0.346649
vn -0.717344 -0.653898 -0.240487
vn -0.990586 -0.132306 -0.035149
vn -0.984238 -0.156960 -0.081487
s 1
g Bark:Bark:BarkLowpoly
usemtl initialShadingGroup
f 2/1/1 1/2/2 90/3/3 91/4/4
f 4/5/5 15/6/6 52/7/7 3/8/8
f 170/9/9 171/10/10 16/11/11 17/12/12
f 169/13/13 170/9/9 17/12/12 118/14/14
f 52/7/7 160/15/15 161/16/16 3/8/8
f 46/17/17 12/18/18 13/19/19 45/20/20
f 174/21/21 175/22/22 15/6/6 4/5/5
f 10/23/23 9/24/24 128/25/25 131/26/26
f 171/10/10 172/27/27 19/28/28 16/11/11
f 18/29/29 10/23/23 131/26/26 133/30/30
f 19/28/28 20/31/31 21/32/32 22/33/33
f 23/34/34 24/35/35 25/36/36 26/37/37
f 23/34/34 27/38/38 28/39/39 24/35/35
f 23/34/34 26/37/37 29/40/40 27/38/38
f 30/41/41 31/42/42 53/43/43 34/44/44
f 32/45/45 35/46/46 36/47/47 37/48/48
f 37/48/48 38/49/49 33/50/50 32/45/45
f 58/51/51 39/52/52 37/48/48 36/47/47
f 40/185/53 39/214/52 41/54/54 42/55/55
f 11/56/56 42/55/55 41/54/54 43/57/57
f 43/57/57 41/54/54 59/58/58 60/59/59
f 44/60/60 162/61/61 163/62/62 61/63/63
f 161/16/16 162/61/61 44/60/60 3/8/8
f 4/5/5 3/8/8 44/60/60 13/19/19
f 45/20/20 13/19/19 44/60/60 61/63/63
f 46/17/17 45/20/20 63/64/64 66/65/65
f 47/66/66 46/17/17 66/65/65 68/67/67
f 14/68/68 12/18/18 46/17/17 47/66/66
f 14/68/68 47/66/66 48/69/69 49/181/70
f 31/42/42 49/70/70 48/213/69 53/43/43
f 50/71/71 176/72/72 177/73/73 33/50/50
f 175/22/22 176/180/72 50/215/71 15/6/6
f 38/49/49 51/74/74 50/71/71 33/50/50
f 50/215/71 51/186/74 52/7/7 15/6/6
f 69/75/75 54/76/76 53/43/43 48/213/69
f 34/44/44 53/43/43 54/76/76 55/77/77
f 35/46/46 56/78/78 57/79/79 36/47/47
f 80/80/80 58/51/51 36/47/47 57/79/79
f 39/214/52 58/210/51 59/58/58 41/54/54
f 59/58/58 58/210/51 80/209/80 82/81/81
f 60/59/59 59/58/58 82/81/81 84/82/82
f 61/63/63 163/62/62 164/83/83 62/84/84
f 45/20/20 61/63/63 62/84/84 63/64/64
f 64/85/85 63/64/64 62/84/84 85/86/86
f 63/64/64 64/85/85 65/87/87 66/65/65
f 66/65/65 65/87/87 67/88/88 68/67/67
f 47/66/66 68/67/67 69/212/75 48/69/69
f 69/75/75 70/207/89 71/90/90 54/76/76
f 72/91/91 71/90/90 70/207/89 94/92/92
f 71/90/90 72/91/91 73/93/93 74/94/94
f 71/90/90 74/94/94 55/77/77 54/76/76
f 76/95/95 77/96/96 57/79/79 56/78/78
f 79/97/97 80/80/80 57/79/79 77/96/96
f 80/209/80 79/211/97 81/98/98 82/81/81
f 82/81/81 81/98/98 83/99/99 84/82/82
f 164/83/83 165/100/100 85/86/86 62/84/84
f 64/85/85 85/86/86 86/101/101 1/2/2
f 1/2/2 86/101/101 87/102/102 88/103/103
f 88/103/103 87/102/102 106/104/104 107/105/105
f 89/106/106 88/103/103 107/105/105 108/107/107
f 1/2/2 88/103/103 89/106/106 90/3/3
f 90/3/3 89/106/106 92/108/108 93/208/109
f 90/3/3 93/208/109 94/206/92 91/4/4
f 94/206/92 70/89/89 67/88/88 91/4/4
f 72/91/91 94/92/92 93/109/109 96/110/110
f 93/109/109 92/204/108 95/111/111 96/110/110
f 96/110/110 95/111/111 97/112/112 98/113/113
f 96/110/110 98/113/113 73/93/93 72/91/91
f 98/113/113 97/112/112 99/114/114 75/115/115
f 78/205/116 101/203/117 102/118/118 103/119/119
f 103/119/119 81/98/98 79/211/97 78/205/116
f 83/99/99 81/98/98 103/119/119 104/120/120
f 85/86/86 165/100/100 166/121/121 86/101/101
f 86/101/101 166/121/121 167/122/122 87/102/102
f 106/104/104 87/102/102 167/122/122 168/123/123
f 107/105/105 106/104/104 118/14/14 119/124/124
f 108/107/107 107/105/105 119/124/124 120/125/125
f 109/126/126 108/107/107 120/125/125 121/127/127
f 89/106/106 108/107/107 109/126/126 92/108/108
f 95/111/111 92/204/108 109/202/126 110/128/128
f 95/111/111 110/128/128 111/129/129 97/112/112
f 97/112/112 111/129/129 112/130/130 99/114/114
f 99/114/114 112/130/130 113/131/131 100/132/132
f 100/132/132 113/131/131 114/133/133 101/117/117
f 101/203/117 114/201/133 115/134/134 102/118/118
f 102/118/118 115/134/134 116/135/135 105/136/136
f 104/120/120 103/119/119 102/118/118 105/136/136
f 117/137/137 116/135/135 115/134/134 127/138/138
f 106/104/104 168/123/123 169/13/13 118/14/14
f 119/124/124 118/14/14 17/12/12 155/139/139
f 155/139/139 157/140/140 120/125/125 119/124/124
f 121/127/127 120/125/125 157/140/140 158/187/141
f 122/142/142 121/188/127 158/141/141 145/143/143
f 110/128/128 109/202/126 121/188/127 122/142/142
f 110/128/128 122/142/142 123/144/144 111/129/129
f 111/129/129 123/144/144 124/145/145 112/130/130
f 112/130/130 124/145/145 125/146/146 113/131/131
f 113/131/131 125/146/146 126/147/147 114/133/133
f 114/201/133 126/196/147 127/138/138 115/134/134
f 117/137/137 127/138/138 128/25/25 9/24/24
f 129/148/148 128/25/25 127/138/138 126/196/147
f 128/25/25 129/148/148 130/200/149 131/26/26
f 131/26/26 130/200/149 132/199/150 133/30/30
f 133/30/30 132/199/150 134/198/151 135/152/152
f 18/29/29 133/30/30 135/152/152 136/153/153
f 135/152/152 5/197/154 6/155/155 136/153/153
f 172/27/27 6/155/155 20/31/31 19/28/28
f 135/152/152 134/198/151 7/191/156 5/197/154
f 134/151/151 132/150/150 137/157/157 138/158/158
f 8/159/159 7/156/156 134/151/151 138/158/158
f 138/158/158 137/157/157 28/39/39 27/38/38
f 138/158/158 27/38/38 29/40/40 8/159/159
f 137/157/157 139/160/160 140/161/161 28/39/39
f 139/160/160 137/157/157 132/150/150 130/149/149
f 141/162/162 139/160/160 130/149/149 129/195/148
f 142/163/163 141/162/162 125/146/146 124/145/145
f 141/162/162 142/163/163 140/161/161 139/160/160
f 125/146/146 141/162/162 129/195/148 126/147/147
f 143/164/164 142/163/163 124/145/145 123/144/144
f 142/163/163 143/164/164 144/165/165 140/161/161
f 144/165/165 143/164/164 145/143/143 146/166/166
f 144/165/165 146/166/166 25/36/36 24/35/35
f 144/165/165 24/35/35 28/39/39 140/161/161
f 146/166/166 145/143/143 158/141/141 147/167/167
f 25/36/36 146/166/166 147/167/167 148/194/168
f 25/36/36 148/194/168 149/193/169 26/37/37
f 26/37/37 149/193/169 150/190/170 29/40/40
f 29/40/40 150/190/170 7/156/156 8/159/159
f 150/170/170 149/169/169 151/171/171 152/172/172
f 150/170/170 152/172/172 5/154/154 7/192/156
f 152/172/172 151/171/171 21/32/32 20/31/31
f 6/155/155 5/154/154 152/172/172 20/31/31
f 22/33/33 21/32/32 151/171/171 153/173/173
f 22/33/33 153/173/173 154/174/174 156/175/175
f 153/173/173 151/171/171 149/169/169 148/168/168
f 153/173/173 148/168/168 147/189/167 154/174/174
f 155/139/139 156/175/175 154/174/174 157/140/140
f 157/140/140 154/174/174 147/189/167 158/187/141
f 156/175/175 155/139/139 17/12/12 16/11/11
f 19/28/28 22/33/33 156/175/175 16/11/11
f 122/142/142 145/143/143 143/164/164 123/144/144
f 2/1/1 91/4/4 67/88/88 65/87/87
f 70/89/89 69/212/75 68/67/67 67/88/88
f 2/1/1 65/87/87 64/85/85 1/2/2
f 100/132/132 159/176/176 75/115/115 99/114/114
f 159/176/176 100/132/132 101/117/117 78/116/116
f 159/176/176 77/96/96 76/95/95 75/115/115
f 159/176/176 78/116/116 79/97/97 77/96/96
f 161/16/16 160/15/15 42/217/55 11/56/56
f 11/56/56 43/57/57 162/61/61 161/16/16
f 163/62/62 162/61/61 43/57/57 60/59/59
f 164/83/83 163/62/62 60/59/59 84/82/82
f 84/82/82 83/99/99 165/100/100 164/83/83
f 166/121/121 165/100/100 83/99/99 104/120/120
f 167/122/122 166/121/121 104/120/120 105/136/136
f 168/123/123 167/122/122 105/136/136 116/135/135
f 169/13/13 168/123/123 116/135/135 117/137/137
f 117/137/137 9/24/24 170/9/9 169/13/13
f 9/24/24 10/23/23 171/10/10 170/9/9
f 10/23/23 18/29/29 172/27/27 171/10/10
f 136/153/153 6/155/155 172/27/27 18/29/29
f 51/186/74 173/183/177 160/15/15 52/7/7
f 42/217/55 160/15/15 173/183/177 40/184/53
f 40/53/53 38/49/49 37/48/48 39/52/52
f 40/53/53 173/177/177 51/74/74 38/49/49
f 14/216/68 175/22/22 174/21/21 12/18/18
f 49/182/70 176/180/72 175/22/22 14/216/68
f 177/73/73 176/72/72 49/70/70 31/42/42
f 12/18/18 174/21/21 4/5/5 13/19/19
f 75/115/115 76/95/95 73/93/93 98/113/113
f 74/94/94 73/93/93 76/95/95 56/78/78
f 56/78/78 35/46/46 55/77/77 74/94/94
f 55/77/77 35/46/46 178/178/178 34/44/44
f 178/178/178 179/179/179 30/41/41 34/44/44
f 179/179/179 178/178/178 35/46/46 32/45/45
f 177/73/73 179/179/179 32/45/45 33/50/50
f 31/42/42 30/41/41 179/179/179 177/73/73
